<svg width="22" height="29" viewBox="0 0 22 29" fill="none" xmlns="http://www.w3.org/2000/svg">
<path fill-rule="evenodd" clip-rule="evenodd" d="M2.95124 27.0317C2.95124 27.0317 3.3832 29 5.60663 29H15.66C17.8833 29 18.3153 27.0317 18.3153 27.0317L20.3 7.73338H0.966645L2.95124 27.0317ZM14.5 10.6334C14.5 10.0995 14.9327 9.66677 15.4666 9.66677C16.0006 9.66677 16.4334 10.0995 16.4334 10.6334L15.4666 25.1334C15.4666 25.6673 15.0338 26.1001 14.5 26.1001C13.9662 26.1001 13.5334 25.6672 13.5334 25.1334L14.5 10.6334ZM9.66667 10.6334C9.66667 10.0995 10.0995 9.66677 10.6333 9.66677C11.1672 9.66677 11.6 10.0995 11.6 10.6334V25.1334C11.6 25.6673 11.1672 26.1001 10.6333 26.1001C10.0994 26.1001 9.66667 25.6672 9.66667 25.1334V10.6334ZM5.79998 9.66667C6.33391 9.66667 6.76662 10.0994 6.76662 10.6333L7.73338 25.1333C7.73338 25.6672 7.30055 26.1 6.76662 26.1C6.2328 26.1 5.79998 25.6671 5.79998 25.1333L4.83333 10.6334C4.83333 10.0995 5.26616 9.66667 5.79998 9.66667ZM19.7199 3.8682H15.4666V1.9334C15.4666 0.46685 14.9923 0 13.5334 0H7.73327C6.39504 0 5.79998 0.648211 5.79998 1.9334V3.86831H1.5467C0.69185 3.86831 0 4.51717 0 5.31898C0 6.1209 0.69185 6.76976 1.5467 6.76976H19.7199C20.5748 6.76976 21.2666 6.1209 21.2666 5.31898C21.2666 4.51717 20.5748 3.8682 19.7199 3.8682ZM13.5334 3.8682H7.73338L7.73348 1.93329H13.5335V3.8682H13.5334Z" fill="#4D4D4D"/>
</svg>
