<svg width="117" height="100" viewBox="0 0 117 100" fill="none" xmlns="http://www.w3.org/2000/svg">
<path d="M117 55.214C117 68.5871 106.973 79.4405 94.169 79.9174L93.9244 79.9221L59.7479 79.9193L24.511 79.9174C10.7679 79.4833 0 67.9006 0 53.5466C0 48.2312 1.51749 43.0966 4.38732 38.6969C6.96259 34.7528 10.4617 31.6452 14.5705 29.6443C15.7381 20.8329 22.9614 14.1463 31.6467 14.1463C34.3372 14.1463 36.9419 14.7881 39.3074 16.0187C43.3948 8.95951 49.9146 3.67957 57.5359 1.34514C58.267 1.12064 59.0052 0.925015 59.7479 0.756407C61.9688 0.255241 64.2406 0 66.523 0C83.3627 0 97.1852 13.7336 98.2528 31.0323C109.077 33.4244 117 43.4571 117 55.214Z" fill="#DDEBF0"/>
<path d="M117 55.214C117 68.5871 107.017 79.4405 94.2695 79.9174L94.026 79.9221L60 79.9193V0.756407C62.2111 0.255241 64.4729 0 66.7453 0C83.5108 0 97.2724 13.7336 98.3353 31.0323C109.112 33.4244 117 43.4571 117 55.214Z" fill="#C4E1E8"/>
<path d="M81.0935 65.0793C79.1207 67.1667 76.4822 68.3161 73.664 68.3161C72.5923 68.3161 71.5462 68.15 70.5512 67.8282V89.2323C70.5512 95.0348 66.2929 99.6559 60.0007 99.6559C54.3926 99.6559 49.7713 94.8753 49.7713 89.0728V67.7348C48.6951 68.116 47.556 68.3161 46.3858 68.3161C43.6105 68.3161 40.9993 67.1978 39.0385 65.1661C34.9872 60.9753 34.9872 54.1555 39.0385 49.9638L52.8139 35.7108C54.7383 33.7177 57.2847 32.6042 60.0007 32.5627C60.0546 32.5608 60.1084 32.5608 60.1613 32.5608C62.8673 32.5608 65.4292 33.6309 67.3764 35.5758C67.3901 35.5881 67.4092 35.607 67.4302 35.6268L80.9767 49.9279C84.9623 54.1357 85.0134 60.9319 81.0935 65.0793Z" fill="#6ED945"/>
<path d="M81.0934 65.0793C79.1206 67.1667 76.482 68.3161 73.6637 68.3161C72.592 68.3161 71.5459 68.15 70.5508 67.8282V89.2323C70.5508 95.0348 66.2923 99.6559 60 99.6559V32.5627C60.0538 32.5608 60.1076 32.5608 60.1605 32.5608C62.8666 32.5608 65.4286 33.6309 67.3759 35.5758C67.3896 35.5881 67.4087 35.607 67.4297 35.6268L80.9766 49.9279C84.9624 54.1357 85.0134 60.9319 81.0934 65.0793Z" fill="#54C12C"/>
</svg>
