<svg width="108" height="93" viewBox="0 0 108 93" fill="none" xmlns="http://www.w3.org/2000/svg">
<path d="M34.2827 2.11906L31.3507 7.66638H53.635L50.7031 2.11906C50.0169 0.820266 48.614 0 47.0792 0H37.9064C36.372 0 34.9691 0.820266 34.2827 2.11906Z" fill="#EFF2FA"/>
<path d="M93.4136 34.4986H28.5863C27.4675 34.4986 26.5603 33.6404 26.5603 32.5819V5.74968C26.5603 4.69124 27.4675 3.83298 28.5863 3.83298H93.4138C94.5326 3.83298 95.4397 4.69124 95.4397 5.74968V32.5821C95.4395 33.6406 94.5323 34.4986 93.4136 34.4986Z" fill="#EFF2FA"/>
<path d="M97.4655 38.3321H24.5344C23.4156 38.3321 22.5084 37.4738 22.5084 36.4154V9.58284C22.5084 8.5244 23.4156 7.66614 24.5344 7.66614H97.4653C98.584 7.66614 99.4912 8.5244 99.4912 9.58284V36.4154C99.4912 37.4738 98.5843 38.3321 97.4655 38.3321Z" fill="#1E56C3"/>
<path d="M29.3094 12.231L26.3774 17.7784H51.166L48.234 12.231C47.5478 10.9323 46.1445 10.112 44.6101 10.112H32.9333C31.3987 10.112 29.9958 10.9323 29.3094 12.231Z" fill="#EFF2FA"/>
<path d="M98.542 44.8405H23.4583C22.3065 44.8405 21.3726 43.9734 21.3726 42.9041V15.7961C21.3726 14.7268 22.3065 13.8598 23.4583 13.8598H98.5417C99.6935 13.8598 100.627 14.7268 100.627 15.7961V42.9041C100.627 43.9734 99.6938 44.8405 98.542 44.8405Z" fill="#EFF2FA"/>
<path d="M101.517 48.4444H20.4827C19.364 48.4444 18.4568 47.5862 18.4568 46.5277V19.6953C18.4568 18.6368 19.364 17.7786 20.4827 17.7786H101.517C102.636 17.7786 103.543 18.6368 103.543 19.6953V46.5277C103.543 47.5862 102.636 48.4444 101.517 48.4444Z" fill="#1E56C3"/>
<path d="M23.4145 22.3434L20.4825 27.8907H50.8705L47.9385 22.3434C47.2523 21.0447 45.8494 20.2244 44.3146 20.2244H27.0387C25.5036 20.2244 24.1007 21.0447 23.4145 22.3434Z" fill="#EFF2FA"/>
<path d="M103.129 54.6238H18.8712C17.7079 54.6238 16.7646 53.7796 16.7646 52.7384V26.3439C16.7646 25.3027 17.7079 24.4584 18.8712 24.4584H103.129C104.292 24.4584 105.235 25.3027 105.235 26.3439V52.7384C105.235 53.7798 104.292 54.6238 103.129 54.6238Z" fill="#EFF2FA"/>
<path d="M105.956 86.4197H16.0436C14.9151 86.4197 14 84.7828 14 82.7641V31.5878C14 29.5691 14.9151 27.9321 16.0436 27.9321H105.956C107.085 27.9321 108 29.5691 108 31.5878V82.7645C108 84.7832 107.085 86.4197 105.956 86.4197Z" fill="#1E56C3"/>
<path d="M101.517 42.6531H77.2069C76.1505 42.6531 75.3059 41.8444 75.3059 40.8614V33.195C75.3059 32.2121 76.1505 31.4033 77.2069 31.4033H101.517C102.573 31.4033 103.418 32.2121 103.418 33.195V40.8614C103.418 41.8444 102.573 42.6531 101.517 42.6531Z" fill="#EFF2FA" stroke="black" stroke-width="0.25"/>
<path d="M89.3617 35.1113H81.2584C80.1396 35.1113 79.2324 35.9696 79.2324 37.028C79.2324 38.0864 80.1396 38.9447 81.2584 38.9447H89.3617C90.4805 38.9447 91.3877 38.0864 91.3877 37.028C91.3877 35.9694 90.4805 35.1113 89.3617 35.1113Z" fill="#707487"/>
<path d="M97.4655 35.1113H95.4395C94.3208 35.1113 93.4136 35.9696 93.4136 37.028C93.4136 38.0864 94.3208 38.9447 95.4395 38.9447H97.4655C98.5843 38.9447 99.4914 38.0864 99.4914 37.028C99.4912 35.9696 98.5843 35.1113 97.4655 35.1113Z" fill="#8F96AC"/>
<rect y="55" width="31" height="37.8584" fill="white"/>
<mask id="mask0" mask-type="alpha" maskUnits="userSpaceOnUse" x="0" y="55" width="31" height="38">
<rect x="2.5" y="57.5" width="26" height="32.8584" fill="white" stroke="#C4C4C4" stroke-width="5"/>
</mask>
<g mask="url(#mask0)">
<path d="M25.2852 68.9397C26.9261 75.3695 22.5726 82.5159 15.4999 82.7302C8.42716 82.4422 4.06698 75.2958 5.78158 68.9397C7.49618 62.2956 10.9991 59.9381 15.4999 59.9381C20.0007 59.9381 23.5706 62.2956 25.2852 68.9397Z" fill="#40596B"/>
<path d="M20.6433 81.0826V85.4427L19.8597 87.586L17.3548 94.2301H13.7112L11.213 87.586L10.3557 85.4427V81.0826L11.7153 80.6539V79.368H19.3574V80.6539L20.6433 81.0826Z" fill="#F8B64C"/>
<path d="M23.0012 72.6569C20.8579 80.875 15.4998 81.4443 15.4998 81.4443C15.4998 81.4443 10.2153 80.8013 7.9984 72.6569C7.9984 72.6569 6.78612 71.7259 7.78407 68.1561C7.78407 68.1561 8.35337 61.0097 15.4998 61.0097C22.5725 61.0097 23.2155 68.1561 23.2155 68.1561C24.2134 71.7259 23.0012 72.6569 23.0012 72.6569Z" fill="#FFD15C"/>
<path d="M22.3577 85.6571V94.2301H8.7146V85.6571C8.85525 85.7977 8.92892 85.9451 9.06958 86.012C9.71255 86.655 10.4292 87.1573 11.2128 87.586L11.2865 87.6597C11.6415 87.874 12.0701 88.0146 12.4318 88.162C14.4344 88.8786 16.5777 88.8786 18.5736 88.162C19.0022 88.0213 19.3572 87.874 19.7189 87.6597C19.7189 87.6597 19.7925 87.6597 19.7925 87.586C20.5762 87.1573 21.2928 86.655 21.9358 86.012C22.1434 85.8714 22.2171 85.7307 22.3577 85.6571Z" fill="#84DBFF"/>
<path d="M32.6455 90.2316V94.2301H17.2877L19.7859 87.6597L20.7169 85.3021L21.3599 83.5138L22.2172 81.5112L27.9303 83.5808C30.7902 84.5855 32.6455 87.231 32.6455 90.2316Z" fill="#CDD6E0"/>
<path d="M11.2869 87.586L13.7852 94.2301H-1.64624V90.2316C-1.64624 87.231 0.282687 84.5855 3.06892 83.5138L8.8557 81.4443L9.713 83.4469L10.356 85.1615L11.2869 87.586Z" fill="#CDD6E0"/>
<path d="M23.6439 87.6597L22.358 89.5149L19.2168 94.2301H16.7855L18.5738 88.1553L20.6434 81.1563V81.0826H20.7171L22.2173 81.4443L23.2153 84.2305L21.5744 85.5834L22.003 86.0121L22.358 86.3737L23.6439 87.6597Z" fill="#F2F2F2"/>
<path d="M12.4257 88.1553L14.2876 94.2301H11.7827L8.71515 89.5149L7.4292 87.6597L8.71515 86.3737L9.07013 86.012L9.49878 85.5834L7.85785 84.2305L8.8558 81.4442L10.2824 81.0826H10.3561V81.1562L12.4257 88.1553Z" fill="#F2F2F2"/>
<path d="M15.9284 67.694C17.4354 68.6986 23.9723 68.1963 23.9723 68.1963L23.7178 66.9371C23.2155 64.2982 20.7039 62.1617 18.4401 60.7753H13.5374L11.5281 62.0344L12.0304 63.2936C12.7872 65.1823 14.167 66.562 15.9284 67.694Z" fill="#40596B"/>
<path d="M11.7826 68.4508C9.89389 69.9578 6.75269 69.2076 6.75269 69.2076L7.75733 66.4415L8.1324 64.0504L12.0505 61.1436L14.2943 61.9139V62.9185C14.0464 64.4255 13.0351 67.3189 11.7826 68.4508Z" fill="#40596B"/>
<rect x="1" y="56" width="29" height="35.8584" stroke="#C4C4C4" stroke-width="2"/>
</g>
</svg>
