<svg width="81" height="100" viewBox="0 0 81 100" fill="none" xmlns="http://www.w3.org/2000/svg">
<path d="M73.7262 17.6959H7.14153C4.62162 17.6959 2.58093 19.4357 2.58093 21.5841V93.905C2.58093 96.0534 4.62162 97.7932 7.14153 97.7932H73.7262C76.2461 97.7932 78.2868 96.0534 78.2868 93.905V21.5841C78.2868 19.4357 76.2461 17.6959 73.7262 17.6959Z" fill="#3A5576"/>
<path d="M68.8235 74.5091V89.4109H50.7573L68.8235 74.5091Z" fill="#FFA545"/>
<path d="M12.0441 25.1468V89.4109H50.7983L68.8235 73.9256V25.1468C66.3582 25.1468 14.6105 25.1468 12.0441 25.1468Z" fill="#FFF6D2"/>
<path d="M68.8235 74.5091L50.7573 89.4109V74.5091H68.8235Z" fill="#FFEA91"/>
<path d="M59.3603 17.3855V25.1468H20.6471V17.3855C20.6471 15.2412 22.6614 13.5048 25.1486 13.5048H32.2517C31.478 12.358 31.0006 11.0445 31.0006 9.62413C31.0006 5.34402 35.0388 1.86279 40.0037 1.86279C44.9686 1.86279 49.0068 5.34402 49.0068 9.62413C49.0068 11.0445 48.5294 12.358 47.7557 13.5048H54.8588C57.3461 13.5048 59.3603 15.2412 59.3603 17.3855Z" fill="#96C8EF"/>
<path d="M40.4338 12.1078C41.8583 12.1078 43.0147 11.2732 43.0147 10.2451C43.0147 9.21692 41.8583 8.38232 40.4338 8.38232C39.0093 8.38232 37.8529 9.21692 37.8529 10.2451C37.8529 11.2732 39.0093 12.1078 40.4338 12.1078Z" fill="black"/>
<path d="M24.9486 40.0486C26.3731 40.0486 27.5294 39.2141 27.5294 38.1859C27.5294 37.1578 26.3731 36.3232 24.9486 36.3232C23.524 36.3232 22.3677 37.1578 22.3677 38.1859C22.3677 39.2141 23.524 40.0486 24.9486 40.0486Z" fill="black"/>
<path d="M73.9755 99.6559C77.7761 99.6559 80.8676 97.0366 80.8676 93.8167V21.4104C80.8676 18.1905 77.7761 15.5712 73.9755 15.5712H62.0938C61.1452 13.3055 58.5912 11.6784 55.5965 11.6784H51.6802C51.8399 11.0405 51.9207 10.3905 51.9207 9.73202C51.9207 4.36572 46.7678 0 40.4338 0C34.0999 0 28.9469 4.36572 28.9469 9.73202C28.9469 10.3905 29.0277 11.0405 29.1874 11.6784H25.2711C22.2765 11.6784 19.7224 13.3055 18.7739 15.5712H6.89213C3.09159 15.5712 0 18.1905 0 21.4104V93.8167C0 97.0366 3.09159 99.6559 6.89213 99.6559H73.9755ZM67.0834 79.0521V87.9775H56.5487L67.0834 79.0521ZM53.2991 85.2244V76.299H63.8339L53.2991 85.2244ZM67.0834 72.4062H51.0018C49.7328 72.4062 48.7044 73.2775 48.7044 74.3526V87.9775H13.7843V27.2497H67.0834V72.4062ZM25.2711 15.5712H32.5213C33.3443 15.5712 34.1035 15.1987 34.5136 14.595C34.9228 13.9913 34.921 13.2477 34.5073 12.6455C33.8666 11.7134 33.5417 10.7326 33.5417 9.73202C33.5417 6.51209 36.6333 3.89281 40.4338 3.89281C44.2344 3.89281 47.326 6.51209 47.326 9.73202C47.326 10.7326 47.0011 11.7134 46.3603 12.6455C45.9466 13.2477 45.9439 13.9913 46.3541 14.595C46.7642 15.1994 47.5234 15.5712 48.3463 15.5712H55.5965C56.8637 15.5712 57.8939 16.4441 57.8939 17.5176V23.3568H22.9738V17.5176C22.9738 16.4441 24.004 15.5712 25.2711 15.5712ZM4.59475 93.8167V21.4104C4.59475 20.3369 5.62498 19.464 6.89213 19.464H18.379V23.3568H11.4869C10.2179 23.3568 9.1895 24.2282 9.1895 25.3033V89.9239C9.1895 90.9989 10.2179 91.8703 11.4869 91.8703H69.3808C70.6497 91.8703 71.6781 90.9989 71.6781 89.9239C71.6781 83.3167 71.6781 41.0174 71.6781 25.3033C71.6781 24.2282 70.6497 23.3568 69.3808 23.3568H62.4886V19.464H73.9755C75.2427 19.464 76.2729 20.3369 76.2729 21.4104V93.8167C76.2729 94.8902 75.2427 95.7631 73.9755 95.7631H6.89213C5.62498 95.7631 4.59475 94.8902 4.59475 93.8167Z" fill="black"/>
<path d="M55.3354 36.3232H34.1353C32.8625 36.3232 31.8309 37.1571 31.8309 38.1859C31.8309 39.2148 32.8625 40.0486 34.1353 40.0486H55.3354C56.6082 40.0486 57.6398 39.2148 57.6398 38.1859C57.6398 37.1571 56.6082 36.3232 55.3354 36.3232Z" fill="black"/>
<path d="M55.3192 56.8132H24.6882C23.4065 56.8132 22.3677 57.6471 22.3677 58.676C22.3677 59.7048 23.4065 60.5387 24.6882 60.5387H55.3192C56.6009 60.5387 57.6397 59.7048 57.6397 58.676C57.6397 57.6471 56.6009 56.8132 55.3192 56.8132Z" fill="black"/>
<path d="M55.3192 65.1955H24.6882C23.4065 65.1955 22.3677 66.0293 22.3677 67.0582C22.3677 68.087 23.4065 68.9209 24.6882 68.9209H55.3192C56.6009 68.9209 57.6397 68.087 57.6397 67.0582C57.6397 66.0293 56.6009 65.1955 55.3192 65.1955Z" fill="black"/>
<path d="M55.3192 49.3622H24.6882C23.4065 49.3622 22.3677 50.1961 22.3677 51.225C22.3677 52.2539 23.4065 53.0878 24.6882 53.0878H55.3192C56.6009 53.0878 57.6397 52.2539 57.6397 51.225C57.6397 50.1961 56.6009 49.3622 55.3192 49.3622Z" fill="black"/>
</svg>
