<svg width="32" height="27" viewBox="0 0 32 27" fill="none" xmlns="http://www.w3.org/2000/svg">
<path d="M7.46661 9.59998C7.33114 9.59998 7.21114 9.69171 7.17594 9.82238L1.06661 25.0666V25.6C1.06661 25.9914 1.04154 26.1333 1.36794 26.1333H25.2394C25.8559 26.1333 26.3989 25.7178 26.5461 25.1664L31.9999 10.1333C31.9999 10.1333 31.9999 9.79998 31.9999 9.59998H7.46661Z" fill="#4D4D4D"/>
<path d="M6.78987 8.53333H28.2667H28.8V5.1904C28.8 4.38667 28.1461 3.73333 27.3429 3.73333H14.1413L11.4747 0H1.45707C0.653867 0 0 0.653867 0 1.45707V23.7483L5.48373 9.4992C5.6304 8.9488 6.17333 8.53333 6.78987 8.53333Z" fill="#4D4D4D"/>
</svg>
