<svg width="32" height="26" viewBox="0 0 32 26" fill="none" xmlns="http://www.w3.org/2000/svg">
<path d="M30.6946 0.375244H1.30536C0.596737 0.375244 0 0.971981 0 1.68061V24.3193C0 25.0279 0.596737 25.6247 1.30536 25.6247H30.6946C31.4033 25.6247 32 25.0279 32 24.3193V1.68061C32 0.934685 31.4406 0.375244 30.6946 0.375244ZM29.3893 16.0023L24.0559 11.7505C23.5711 11.3776 22.8625 11.3776 22.3776 11.7878L16.373 17.0093L8.4289 8.05823C8.16783 7.79716 7.79487 7.61068 7.42191 7.61068C7.04895 7.61068 6.71329 7.75986 6.45221 8.02093L2.61072 12.1981V2.98597H29.3893V16.0023Z" fill="#4D4D4D"/>
<path d="M16 3.76917C13.6503 3.76917 11.7109 5.70856 11.7109 8.05821C11.7109 10.4079 13.613 12.3472 16 12.3472C18.3869 12.3472 20.289 10.4079 20.289 8.05821C20.289 5.67126 18.3496 3.76917 16 3.76917Z" fill="#4D4D4D"/>
</svg>
