<svg width="28" height="42" viewBox="0 0 28 42" fill="none" xmlns="http://www.w3.org/2000/svg">
<path d="M5.68463 12.9678C6.05674 12.6516 6.10198 12.0935 5.78588 11.7214C4.85952 10.6317 4.34948 9.2428 4.34948 7.81053C4.34948 4.47897 7.06002 1.76842 10.3916 1.76842C13.7231 1.76842 16.4337 4.47897 16.4337 7.81053C16.4337 9.24427 15.9228 10.6343 14.9952 11.7242C14.6787 12.096 14.7236 12.6542 15.0956 12.9706C15.262 13.1123 15.4656 13.1815 15.6683 13.1815C15.9185 13.1815 16.1672 13.0759 16.342 12.8704C17.5416 11.4608 18.2021 9.66383 18.2021 7.81053C18.2021 3.50368 14.6984 0 10.3916 0C6.08474 0 2.58105 3.50368 2.58105 7.81053C2.58105 9.66192 3.24068 11.4576 4.43819 12.8667C4.75459 13.2388 5.31223 13.2839 5.68463 12.9678Z" fill="#4D4D4D"/>
<path d="M10.3687 6.07171C12.3181 6.07171 13.8778 7.26613 14.3937 9.00125C14.5059 8.62369 14.567 8.22447 14.567 7.81051C14.567 5.50434 12.6977 3.63483 10.3914 3.63483C8.08534 3.63483 6.21582 5.50434 6.21582 7.81051C6.21582 8.19706 6.26946 8.57093 6.36776 8.92624C6.90624 7.23224 8.44786 6.07171 10.3687 6.07171Z" fill="#4D4D4D"/>
<path d="M27.1721 25.0314C26.6167 21.7227 24.2841 21.1939 23.1881 21.1317C22.843 21.1121 22.5226 20.9372 22.3333 20.6481C21.5392 19.436 20.4751 19.1155 19.5713 19.1155C18.9221 19.1155 18.3556 19.2808 18.0314 19.4002C17.9909 19.4152 17.949 19.4223 17.9081 19.4223C17.7799 19.4223 17.6574 19.353 17.5893 19.2363C16.7829 17.8529 15.6364 17.496 14.6682 17.496C14.1046 17.496 13.6017 17.6169 13.2611 17.7265C13.2256 17.7379 13.1485 17.7433 13.1136 17.7433C12.9285 17.7433 12.725 17.5915 12.725 17.3932V10.2794C12.725 8.65318 11.513 7.84015 10.2934 7.84015C9.07379 7.84015 7.86183 8.65318 7.86183 10.2794V22.7927C7.86183 23.528 7.30021 23.9826 6.69496 23.9826C6.32728 23.9826 5.97301 23.8149 5.72941 23.4406L4.55974 21.6307C4.04277 20.7778 3.29591 20.4241 2.55185 20.4239C0.87008 20.4238 -0.774847 22.2304 0.393785 24.1588L9.60299 41.7977C9.66311 41.9129 9.78351 42 9.91364 42H22.8463C23.0309 42 23.1836 41.8416 23.1948 41.6574L23.5184 36.3792C23.5221 36.3184 23.5423 36.2554 23.5759 36.2044C26.7861 31.3422 27.7053 28.2084 27.1721 25.0314Z" fill="#4D4D4D"/>
</svg>
