<svg width="40" height="40" viewBox="0 0 40 40" fill="none" xmlns="http://www.w3.org/2000/svg">
<path d="M20 0C8.95495 0 0 8.95495 0 20C0 31.0463 8.95495 40 20 40C31.0463 40 40 31.0476 40 20C40 8.95495 31.0462 0 20 0ZM20 36.2499C11.0251 36.2499 3.75006 28.9749 3.75006 20C3.75006 11.0251 11.0251 3.75006 20 3.75006C28.9749 3.75006 36.2499 11.0251 36.2499 20C36.2499 28.9749 28.9749 36.2499 20 36.2499ZM20.0013 8.77121C18.5688 8.77121 17.485 9.51876 17.485 10.7262V21.8012C17.485 23.0099 18.5687 23.755 20.0013 23.755C21.3988 23.755 22.5176 22.9787 22.5176 21.8012V10.7262C22.5174 9.54743 21.3988 8.77121 20.0013 8.77121ZM20.0013 26.25C18.625 26.25 17.5049 27.3701 17.5049 28.7474C17.5049 30.1224 18.625 31.2425 20.0013 31.2425C21.3775 31.2425 22.4963 30.1224 22.4963 28.7474C22.4962 27.3699 21.3775 26.25 20.0013 26.25Z" fill="#4D4D4D"/>
</svg>
