<svg width="36" height="29" viewBox="0 0 36 29" fill="none" xmlns="http://www.w3.org/2000/svg">
<path d="M18 10.8C15.0174 10.8 12.6 13.2185 12.6 16.2C12.6 19.1826 15.0174 21.6 18 21.6C20.9819 21.6 23.4 19.1826 23.4 16.2C23.4 13.2185 20.9819 10.8 18 10.8ZM32.4 5.4H28.08C27.486 5.4 26.8459 4.9392 26.6584 4.37544L25.5416 1.0242C25.3534 0.4608 24.714 0 24.12 0H11.88C11.286 0 10.6459 0.4608 10.4584 1.02456L9.34164 4.3758C9.15336 4.9392 8.514 5.4 7.92 5.4H3.6C1.62 5.4 0 7.02 0 9V25.2C0 27.18 1.62 28.8 3.6 28.8H32.4C34.38 28.8 36 27.18 36 25.2V9C36 7.02 34.38 5.4 32.4 5.4ZM18 25.2C13.0295 25.2 9 21.1705 9 16.2C9 11.2298 13.0295 7.2 18 7.2C22.9698 7.2 27 11.2298 27 16.2C27 21.1705 22.9698 25.2 18 25.2ZM31.14 11.5175C30.4445 11.5175 29.88 10.9537 29.88 10.2575C29.88 9.56196 30.4445 8.99748 31.14 8.99748C31.8362 8.99748 32.4 9.56196 32.4 10.2575C32.4 10.9537 31.8359 11.5175 31.14 11.5175Z" fill="#4D4D4D"/>
</svg>
