<svg width="117" height="101" viewBox="0 0 117 101" fill="none" xmlns="http://www.w3.org/2000/svg">
<path d="M70.6035 20.2V29.6678C70.6035 31.1323 69.4173 32.32 67.9548 32.32H49.0432C47.5827 32.32 46.3966 31.1323 46.3966 29.6678V20.2H7.41941C3.3224 20.2 0 23.527 0 27.6296V93.5704C0 97.6731 3.3224 101 7.41941 101H109.581C113.678 101 117 97.6731 117 93.5704V27.6296C117 23.527 113.678 20.2 109.581 20.2H70.6035Z" fill="#E7ECED"/>
<path d="M67.9548 0H49.0432C47.5827 0 46.3966 1.18776 46.3966 2.65226V29.6698C46.3966 31.1322 47.5827 32.32 49.0452 32.32H67.9568C69.4173 32.32 70.6034 31.1322 70.6034 29.6677V2.65226C70.6034 1.18776 69.4173 0 67.9548 0ZM58.5 18.18C55.1574 18.18 52.4483 15.4671 52.4483 12.12C52.4483 8.77286 55.1574 6.06 58.5 6.06C61.8426 6.06 64.5517 8.77286 64.5517 12.12C64.5517 15.4671 61.8426 18.18 58.5 18.18Z" fill="#424A60"/>
<path d="M44.7545 77.0751L37.1556 73.1886C36.6371 72.922 36.3104 72.3887 36.3104 71.8049V69.4759C40.2097 67.7932 42.4508 64.5248 43.5422 60.4363C45.1862 59.9253 46.3966 58.4022 46.3966 56.5943V54.5743C46.3966 53.027 45.507 51.6918 44.222 51.0131C43.3324 43.4158 38.3175 40.3414 30.2586 40.3414C29.8774 40.3414 29.5022 40.3555 29.135 40.3858C26.3956 40.604 23.6239 40.0889 21.3444 38.5497C20.3963 37.9113 19.5995 37.2306 19.0387 36.5175C18.7825 36.1923 18.2722 36.4004 18.3186 36.8104C18.3993 37.5174 18.5203 38.3416 18.6978 39.2425C19.3635 42.5957 18.9661 42.1069 17.671 45.2702C16.9549 47.0195 16.493 48.9607 16.2791 51.0171C15.0042 51.7019 14.1207 53.0331 14.1207 54.5743V56.5943C14.1207 58.4022 15.331 59.9253 16.9751 60.4363C18.0664 64.5228 20.3056 67.7932 24.2069 69.4759V71.7888C24.2069 72.3806 23.872 72.92 23.3415 73.1826L15.5529 77.0226C13.4268 78.1841 12.1035 80.4162 12.1035 82.8402V84.6905C12.1035 84.6905 12.1035 85.2339 12.1035 85.5167C12.1035 87.7993 20.2309 88.9143 30.2586 88.9143C40.2863 88.9143 48.4138 87.7993 48.4138 85.5167C48.4138 85.2339 48.4138 84.6905 48.4138 84.6905V83.0018C48.4138 80.4929 46.9977 78.1982 44.7545 77.0751Z" fill="#26B99A"/>
<path d="M103.464 79.3658C103.099 79.7476 102.879 80.2748 102.879 80.8C102.879 81.3252 103.081 81.8504 103.464 82.2342C103.846 82.5978 104.372 82.82 104.897 82.82C105.421 82.82 105.946 82.5978 106.329 82.2342C106.692 81.8504 106.914 81.3252 106.914 80.8C106.914 80.2748 106.692 79.7476 106.329 79.3658C105.582 78.6386 104.231 78.6184 103.464 79.3658Z" fill="#AFB6BB"/>
<path d="M60.5172 48.5164H80.6897C81.8052 48.5164 82.7069 47.6134 82.7069 46.4964C82.7069 45.3793 81.8052 44.4764 80.6897 44.4764H60.5172C59.4017 44.4764 58.5 45.3793 58.5 46.4964C58.5 47.6134 59.4017 48.5164 60.5172 48.5164Z" fill="#AFB6BB"/>
<path d="M62.5345 78.8164H60.5172C59.4017 78.8164 58.5 79.7193 58.5 80.8364C58.5 81.9535 59.4017 82.8564 60.5172 82.8564H62.5345C63.65 82.8564 64.5517 81.9535 64.5517 80.8364C64.5517 79.7193 63.65 78.8164 62.5345 78.8164Z" fill="#AFB6BB"/>
<path d="M74.6379 78.8164H70.6034C69.4879 78.8164 68.5862 79.7193 68.5862 80.8364C68.5862 81.9535 69.4879 82.8564 70.6034 82.8564H74.6379C75.7534 82.8564 76.6551 81.9535 76.6551 80.8364C76.6551 79.7193 75.7534 78.8164 74.6379 78.8164Z" fill="#AFB6BB"/>
<path d="M84.7241 78.8164H82.7069C81.5913 78.8164 80.6896 79.7193 80.6896 80.8364C80.6896 81.9535 81.5913 82.8564 82.7069 82.8564H84.7241C85.8397 82.8564 86.7414 81.9535 86.7414 80.8364C86.7414 79.7193 85.8397 78.8164 84.7241 78.8164Z" fill="#AFB6BB"/>
<path d="M96.8276 78.8164H92.7931C91.6776 78.8164 90.7759 79.7193 90.7759 80.8364C90.7759 81.9535 91.6776 82.8564 92.7931 82.8564H96.8276C97.9431 82.8564 98.8448 81.9535 98.8448 80.8364C98.8448 79.7193 97.9431 78.8164 96.8276 78.8164Z" fill="#AFB6BB"/>
<path d="M60.5172 60.6364H104.897C106.012 60.6364 106.914 59.7334 106.914 58.6164C106.914 57.4993 106.012 56.5964 104.897 56.5964H60.5172C59.4017 56.5964 58.5 57.4993 58.5 58.6164C58.5 59.7334 59.4017 60.6364 60.5172 60.6364Z" fill="#AFB6BB"/>
<path d="M104.897 68.7164H60.5172C59.4017 68.7164 58.5 69.6193 58.5 70.7364C58.5 71.8534 59.4017 72.7564 60.5172 72.7564H104.897C106.012 72.7564 106.914 71.8534 106.914 70.7364C106.914 69.6193 106.012 68.7164 104.897 68.7164Z" fill="#AFB6BB"/>
</svg>
