<svg width="60" height="60" viewBox="0 0 60 60" fill="none" xmlns="http://www.w3.org/2000/svg">
<path d="M0.967773 0.967773V59.0323H59.0323V0.967773H0.967773ZM38.2065 49.3549H21.7936C18.8904 49.3549 16.471 46.703 16.4516 43.3934V43.2777C16.4516 35.9421 20.1482 29.6806 25.1325 27.1162L34.8387 27.0968C34.8482 27.1063 34.8581 27.1063 34.8676 27.1162C39.6486 29.8063 43.5484 36.1453 43.5484 43.2777V43.3646C43.539 46.6936 41.1196 49.3549 38.2065 49.3549V49.3549Z" fill="#3E3D42"/>
<path d="M43.5484 43.2777V43.3646C43.539 46.6936 41.1196 49.3549 38.2065 49.3549H21.7936C18.8904 49.3549 16.471 46.703 16.4517 43.3934V43.2777C16.4517 35.9421 20.1483 29.6806 25.1325 27.1162L34.8388 27.0968C34.8482 27.1063 34.8581 27.1063 34.8676 27.1162C39.6486 29.8063 43.5484 36.1453 43.5484 43.2777Z" fill="#FF9811"/>
<path d="M55.1613 43.5483H51.2903V51.2903H43.5484V55.1612H55.1613V43.5483Z" fill="#ACABB1"/>
<path d="M55.1613 16.4516H51.2903V8.70971H43.5484V4.83875H55.1613V16.4516Z" fill="#ACABB1"/>
<path d="M4.83875 43.5483H8.70971V51.2903H16.4516V55.1612H4.83875V43.5483Z" fill="#ACABB1"/>
<path d="M4.83875 16.4516H8.70971V8.70971H16.4516V4.83875H4.83875V16.4516Z" fill="#ACABB1"/>
<path d="M39.6775 18.387C39.6775 23.7318 35.3448 28.0644 30.0001 28.0644C24.6553 28.0644 20.3226 23.7318 20.3226 18.387C20.3226 13.0422 24.6553 8.70959 30.0001 8.70959C35.3448 8.70959 39.6775 13.0422 39.6775 18.387Z" fill="#FFDA44"/>
<path d="M59.0323 0H0.967742C0.43331 0 0 0.43331 0 0.967742V59.0323C0 59.5667 0.43331 60 0.967742 60H59.0323C59.5667 60 60 59.5667 60 59.0323V0.967742C60 0.43331 59.5667 0 59.0323 0ZM58.0645 58.0645H1.93548V1.93548H58.0645V58.0645Z" fill="#231F20"/>
<path d="M36.6192 27.0873C40.167 24.2757 41.5501 19.5296 40.0677 15.2527C38.5859 10.9759 34.5623 8.10336 30.0359 8.09013C25.5096 8.0769 21.4694 10.9263 19.9625 15.1942C18.4556 19.462 19.8108 24.2166 23.3421 27.0485C18.5903 30.2419 15.4839 36.5516 15.4839 43.2776V43.4033C15.5033 47.2161 18.3389 50.3225 21.7936 50.3225H38.2064C41.671 50.3225 44.5067 47.2062 44.5161 43.2776C44.5161 36.7647 41.3998 30.455 36.6192 27.0873V27.0873ZM21.2903 18.784C21.2752 14.5558 24.298 10.9277 28.4596 10.1797C32.6207 9.43212 36.718 11.7806 38.1757 15.7494C39.6335 19.7182 38.0302 24.1604 34.3742 26.284C31.6595 27.8339 28.3273 27.8306 25.6164 26.274C22.9428 24.7265 21.2946 21.8729 21.2903 18.784V18.784ZM38.2064 48.387H21.7936C19.3936 48.387 17.4387 46.142 17.4194 43.3933V43.2776C17.4194 36.8417 20.497 30.8708 25.1226 28.2194C26.6885 28.829 28.3287 29.2264 30 29.3998C31.6865 29.4017 33.3488 29.0005 34.8482 28.2289C39.426 31.074 42.5807 37.1711 42.5807 43.3645C42.5712 46.1321 40.6064 48.387 38.2064 48.387Z" fill="#231F20"/>
<path d="M55.1613 42.5807H51.2903C50.7559 42.5807 50.3226 43.014 50.3226 43.5484V50.3226H43.5484C43.0139 50.3226 42.5806 50.7559 42.5806 51.2904V55.1613C42.5806 55.6958 43.0139 56.1291 43.5484 56.1291H55.1613C55.6957 56.1291 56.129 55.6958 56.129 55.1613V43.5484C56.129 43.014 55.6957 42.5807 55.1613 42.5807ZM54.1935 54.1936H44.5161V52.2581H51.2903C51.8247 52.2581 52.258 51.8248 52.258 51.2904V44.5162H54.1935V54.1936Z" fill="#231F20"/>
<path d="M43.5484 9.67742H50.3226V16.4516C50.3226 16.986 50.7559 17.4194 51.2903 17.4194H55.1613C55.6957 17.4194 56.129 16.986 56.129 16.4516V4.83871C56.129 4.30428 55.6957 3.87097 55.1613 3.87097H43.5484C43.0139 3.87097 42.5806 4.30428 42.5806 4.83871V8.70968C42.5806 9.24411 43.0139 9.67742 43.5484 9.67742ZM44.5161 5.80646H54.1935V15.4839H52.258V8.70968C52.258 8.17525 51.8247 7.74194 51.2903 7.74194H44.5161V5.80646Z" fill="#231F20"/>
<path d="M4.83871 56.1291H16.4516C16.986 56.1291 17.4194 55.6958 17.4194 55.1613V51.2904C17.4194 50.7559 16.986 50.3226 16.4516 50.3226H9.67742V43.5484C9.67742 43.014 9.24411 42.5807 8.70968 42.5807H4.83871C4.30428 42.5807 3.87097 43.014 3.87097 43.5484V55.1613C3.87097 55.6958 4.30428 56.1291 4.83871 56.1291ZM5.80646 44.5162H7.74194V51.2904C7.74194 51.8248 8.17525 52.2581 8.70968 52.2581H15.4839V54.1936H5.80646V44.5162Z" fill="#231F20"/>
<path d="M4.83871 17.4194H8.70968C9.24411 17.4194 9.67742 16.986 9.67742 16.4516V9.67742H16.4516C16.986 9.67742 17.4194 9.24411 17.4194 8.70968V4.83871C17.4194 4.30428 16.986 3.87097 16.4516 3.87097H4.83871C4.30428 3.87097 3.87097 4.30428 3.87097 4.83871V16.4516C3.87097 16.986 4.30428 17.4194 4.83871 17.4194ZM5.80646 5.80646H15.4839V7.74194H8.70968C8.17525 7.74194 7.74194 8.17525 7.74194 8.70968V15.4839H5.80646V5.80646Z" fill="#231F20"/>
</svg>
