<svg width="78" height="78" viewBox="0 0 78 78" fill="none" xmlns="http://www.w3.org/2000/svg">
<path d="M61.8621 18.8276L43.0345 0H1.34485V78H61.8621V18.8276Z" fill="#EFEBDE"/>
<path d="M14.7931 30.931H48.4138C49.1561 30.931 49.7586 30.3299 49.7586 29.5862C49.7586 28.8425 49.1561 28.2414 48.4138 28.2414H14.7931C14.0507 28.2414 13.4482 28.8425 13.4482 29.5862C13.4482 30.3299 14.0507 30.931 14.7931 30.931Z" fill="#D5D0BB"/>
<path d="M14.7931 20.1724H28.2413C28.9837 20.1724 29.5862 19.5713 29.5862 18.8276C29.5862 18.0839 28.9837 17.4828 28.2413 17.4828H14.7931C14.0507 17.4828 13.4482 18.0839 13.4482 18.8276C13.4482 19.5713 14.0507 20.1724 14.7931 20.1724Z" fill="#D5D0BB"/>
<path d="M48.4138 39H14.7931C14.0507 39 13.4482 39.6011 13.4482 40.3448C13.4482 41.0885 14.0507 41.6897 14.7931 41.6897H48.4138C49.1561 41.6897 49.7586 41.0885 49.7586 40.3448C49.7586 39.6011 49.1561 39 48.4138 39Z" fill="#D5D0BB"/>
<path d="M48.4138 49.7586H14.7931C14.0507 49.7586 13.4482 50.3597 13.4482 51.1034C13.4482 51.8471 14.0507 52.4483 14.7931 52.4483H48.4138C49.1561 52.4483 49.7586 51.8471 49.7586 51.1034C49.7586 50.3597 49.1561 49.7586 48.4138 49.7586Z" fill="#D5D0BB"/>
<path d="M48.4138 60.5172H14.7931C14.0507 60.5172 13.4482 61.1184 13.4482 61.8621C13.4482 62.6058 14.0507 63.2069 14.7931 63.2069H48.4138C49.1561 63.2069 49.7586 62.6058 49.7586 61.8621C49.7586 61.1184 49.1561 60.5172 48.4138 60.5172Z" fill="#D5D0BB"/>
<path d="M43.0345 0V18.8276H61.8621L43.0345 0Z" fill="#D5D0BB"/>
<path d="M76.6552 48.4138H47.069V78H76.6552V48.4138Z" fill="#48A0DC"/>
<path d="M63.2069 56.4828H60.5172V78H63.2069V56.4828Z" fill="white"/>
<path d="M68.9802 65.5025L61.862 58.3844L54.7439 65.5025L52.8423 63.6009L61.862 54.5812L70.8818 63.6009L68.9802 65.5025Z" fill="white"/>
</svg>
